<?xml version="1.0" encoding="UTF-8" standalone="no"?>
<!-- Created with Inkscape (http://www.inkscape.org/) -->

<svg
   width="170"
   height="150"
   viewBox="0 0 44.979166 39.687499"
   version="1.1"
   id="svg1"
   inkscape:version="1.4.2 (ebf0e940d0, 2025-05-08)"
   sodipodi:docname="alfred.svg"
   inkscape:export-filename="timer_finished.png"
   inkscape:export-xdpi="131.27704"
   inkscape:export-ydpi="131.27704"
   xml:space="preserve"
   xmlns:inkscape="http://www.inkscape.org/namespaces/inkscape"
   xmlns:sodipodi="http://sodipodi.sourceforge.net/DTD/sodipodi-0.dtd"
   xmlns="http://www.w3.org/2000/svg"
   xmlns:svg="http://www.w3.org/2000/svg"
   xmlns:rdf="http://www.w3.org/1999/02/22-rdf-syntax-ns#"
   xmlns:cc="http://creativecommons.org/ns#"
   xmlns:dc="http://purl.org/dc/elements/1.1/"><sodipodi:namedview
     id="namedview1"
     pagecolor="#212121"
     bordercolor="#eeeeee"
     borderopacity="1"
     inkscape:showpageshadow="0"
     inkscape:pageopacity="0"
     inkscape:pagecheckerboard="true"
     inkscape:deskcolor="#505050"
     inkscape:document-units="px"
     inkscape:zoom="2.8284272"
     inkscape:cx="17.500892"
     inkscape:cy="92.277432"
     inkscape:window-width="3440"
     inkscape:window-height="1355"
     inkscape:window-x="0"
     inkscape:window-y="0"
     inkscape:window-maximized="1"
     inkscape:current-layer="layer1" /><defs
     id="defs1" /><metadata
     id="metadata1"><rdf:RDF><cc:Work
         rdf:about=""><dc:rights><cc:Agent><dc:title>MIT</dc:title></cc:Agent></dc:rights><dc:creator><cc:Agent><dc:title>maheis</dc:title></cc:Agent></dc:creator></cc:Work></rdf:RDF></metadata><g
     inkscape:groupmode="layer"
     id="layer18"
     inkscape:label="WiFi"
     style="display:none"><path
       d="M 43.917846,13.974967 C 43.648236,7.0616193 38.061242,1.4770586 31.150529,1.2076512 30.890652,1.1975165 30.676586,1.4063123 30.677634,1.6664283 l 0.0055,1.3827108 c 8.11e-4,0.2481208 0.198456,0.451037 0.446368,0.4617875 5.667876,0.2481218 10.237244,4.8162755 10.485368,10.4853664 0.01077,0.24792 0.213862,0.445362 0.461788,0.44637 l 1.382711,0.0055 c 0.259879,8.12e-4 0.468674,-0.213256 0.458498,-0.473174 z M 33.538294,11.587202 c -0.716592,-0.716594 -1.878141,-0.716594 -2.594735,0 -0.716593,0.716593 -0.716593,1.878142 0,2.594734 0.716594,0.716594 1.878142,0.716595 2.594735,2e-6 0.716595,-0.716594 0.716595,-1.878143 0,-2.594736 z m 5.802882,2.413914 C 39.070959,9.5983783 35.522253,6.0541322 31.124379,5.7843198 30.860852,5.7681026 30.641719,5.9783159 30.643543,6.2420461 l 0.0091,1.3871702 c 0.0016,0.2416346 0.189336,0.4455651 0.430767,0.4632021 3.172874,0.2306884 5.719567,2.7838676 5.949443,5.9494446 0.01764,0.241432 0.221364,0.429347 0.463202,0.430766 l 1.387172,0.0091 c 0.263932,0.002 0.474147,-0.21751 0.45793,-0.480631 z"
       id="path1-4"
       style="fill:#ff0000;stroke-width:0.028668"
       inkscape:label="WiFi" /></g><g
     inkscape:groupmode="layer"
     id="layer19"
     inkscape:label="?"
     style="display:none"><path
       d="M 42.449457,3.1143679 C 40.703782,1.3686928 38.857874,0.95324271 36.694628,1.341093 36.302207,1.4114495 36.034601,1.7783481 36.088905,2.1733059 l 0.228087,1.6588058 c 0.05485,0.3988727 0.417856,0.6814382 0.817975,0.6365386 1.234148,-0.1384831 2.035677,-0.127263 2.8914,0.7284604 C 40.699188,5.8699318 41.09839,7.135158 40.445952,7.787596 39.95273,8.2808179 39.292265,8.1269595 38.255476,7.835077 37.046414,7.4947081 35.480666,7.0100588 34.12844,8.3622848 l -0.214068,0.2140681 c -0.289892,0.289892 -0.289892,0.7598882 0,1.0497797 l 1.584971,1.5849714 c 0.289893,0.289894 0.759888,0.289893 1.04978,0 l 0.126258,-0.126257 c 0.937367,-0.937367 3.71607,1.763258 6.252645,-0.773317 1.910272,-1.9102283 1.377814,-5.3407792 -0.478569,-7.1971621 z m -8.386868,7.9485431 c -0.835364,-0.835364 -2.19461,-0.835364 -3.029972,-2e-6 -0.835341,0.835341 -0.835341,2.194588 2.2e-5,3.029951 0.835363,0.835363 2.194609,0.835363 3.029972,-10e-7 0.835362,-0.835362 0.835341,-2.194585 -2.2e-5,-3.029948 z"
       id="path1-6"
       style="fill:#ff0000;stroke-width:0.0309294"
       inkscape:label="?" /></g><g
     inkscape:groupmode="layer"
     id="layer20"
     inkscape:label=".o0"
     style="display:inline"><ellipse
       style="display:inline;fill:#18bcf2;fill-opacity:1;stroke:#18bcf2;stroke-width:0.84086;stroke-linecap:round;stroke-linejoin:round;stroke-miterlimit:0;stroke-dasharray:none;stroke-dashoffset:14.6975;stroke-opacity:1"
       id="ellipse15-1"
       cx="31.729031"
       cy="13.396466"
       rx="0.90248674"
       ry="0.90248543"
       inkscape:label="R" /><ellipse
       style="display:inline;fill:#18bcf2;fill-opacity:1;stroke:#18bcf2;stroke-width:1.26129;stroke-linecap:round;stroke-linejoin:round;stroke-miterlimit:0;stroke-dasharray:none;stroke-dashoffset:14.6975;stroke-opacity:1"
       id="ellipse15-1-9"
       cx="33.977989"
       cy="10.089178"
       rx="1.35373"
       ry="1.3537281"
       inkscape:label="R" /><ellipse
       style="display:inline;fill:#18bcf2;fill-opacity:1;stroke:#18bcf2;stroke-width:1.68172;stroke-linecap:round;stroke-linejoin:round;stroke-miterlimit:0;stroke-dasharray:none;stroke-dashoffset:14.6975;stroke-opacity:1"
       id="ellipse15-1-9-1"
       cx="36.491528"
       cy="5.4589744"
       rx="1.8049735"
       ry="1.8049709"
       inkscape:label="R" /></g><g
     inkscape:groupmode="layer"
     id="layer1"
     inkscape:label="head"
     inkscape:export-filename="muted.png"
     inkscape:export-xdpi="115.2"
     inkscape:export-ydpi="115.2"
     style="display:inline"><g
       inkscape:groupmode="layer"
       id="layer9"
       inkscape:label="details"
       sodipodi:insensitive="true"
       style="display:inline"><path
         id="path7-7"
         style="display:inline;fill:#94911e;fill-opacity:1;stroke:#94911e;stroke-width:0.264019;stroke-linecap:square;stroke-linejoin:round;stroke-miterlimit:0;stroke-opacity:1"
         d="m 23.337732,1.7859374 c 0,0.4750631 -0.385115,0.8601779 -0.860178,0.860178 -0.475063,-10e-8 -0.860178,-0.3851149 -0.860178,-0.860178 0,-0.4750631 0.385115,-0.86017791 0.860178,-0.86017806 0.475063,1.5e-7 0.860178,0.38511496 0.860178,0.86017806 z M 21.9837,2.6460979 h 0.987954 v 4.956704 H 21.9837 Z"
         inkscape:label="Antenna"
         sodipodi:nodetypes="sssssccccc" /><rect
         style="fill:none;fill-opacity:1;stroke:#94911e;stroke-width:3.21284;stroke-linecap:round;stroke-linejoin:round;stroke-miterlimit:0;stroke-dasharray:none;stroke-opacity:1"
         id="rect7-2"
         width="2.0788264"
         height="8.6934137"
         x="40.752747"
         y="26.741835"
         inkscape:label="Ear R" /><rect
         style="fill:none;fill-opacity:1;stroke:#94911e;stroke-width:3.21284;stroke-linecap:round;stroke-linejoin:round;stroke-miterlimit:0;stroke-dasharray:none;stroke-opacity:1"
         id="rect7"
         width="2.0788264"
         height="8.6934137"
         x="2.1235573"
         y="26.741835"
         inkscape:label="Ear L" /></g><path
       d="m 38.352554,37.121003 c 0,1.12053 -0.89297,2.037328 -1.984377,2.037328 H 8.5869288 c -1.091406,0 -1.984375,-0.916798 -1.984375,-2.037328 V 24.897032 c 0,-1.120531 0.631032,-2.685063 1.403614,-3.478263 L 21.073939,8.0022148 c 0.771261,-0.791843 2.034646,-0.791843 2.805907,0 L 36.948938,21.419991 c 0.77126,0.791842 1.403616,2.357869 1.403616,3.4784 v 12.22397 z"
       fill="#f2f4f9"
       id="path5"
       inkscape:label="red"
       style="display:none;fill:#666666;fill-opacity:1;stroke-width:0.134044" /><path
       d="m 38.352554,37.121003 c 0,1.12053 -0.89297,2.037328 -1.984377,2.037328 H 8.586929 c -1.091406,0 -1.984375,-0.916798 -1.984375,-2.037328 V 24.897032 c 0,-1.120531 0.631032,-2.685063 1.403614,-3.478263 L 21.073939,8.0022149 c 0.771261,-0.791843 2.034646,-0.791843 2.805907,0 L 36.948938,21.419991 c 0.77126,0.791842 1.403616,2.357869 1.403616,3.4784 v 12.22397 z"
       fill="#f2f4f9"
       id="path5-4"
       inkscape:label="red"
       style="display:none;fill:#ff0000;fill-opacity:1;stroke-width:0.134044" /><path
       d="m 38.352554,37.121004 c 0,1.12053 -0.89297,2.037328 -1.984377,2.037328 H 8.5869288 c -1.091406,0 -1.984375,-0.916798 -1.984375,-2.037328 V 24.897032 c 0,-1.120531 0.631032,-2.685063 1.403614,-3.478263 L 21.073939,8.0022159 c 0.771261,-0.7918431 2.034646,-0.7918431 2.805907,0 L 36.948938,21.419991 c 0.77126,0.791842 1.403616,2.357869 1.403616,3.4784 v 12.22397 z"
       fill="#f2f4f9"
       id="path4"
       inkscape:label="orange"
       style="display:none;fill:#d45500;fill-opacity:1;stroke-width:0.134044" /><path
       d="m 38.352554,37.121003 c 0,1.12053 -0.89297,2.037328 -1.984377,2.037328 H 8.5869288 c -1.091406,0 -1.984375,-0.916798 -1.984375,-2.037328 V 24.897032 c 0,-1.120531 0.631032,-2.685063 1.403614,-3.478263 L 21.073939,8.0022148 c 0.771261,-0.791843 2.034646,-0.791843 2.805907,0 L 36.948938,21.419991 c 0.77126,0.791842 1.403616,2.357869 1.403616,3.4784 v 12.22397 z"
       fill="#f2f4f9"
       id="path3"
       inkscape:label="blue"
       style="display:inline;fill:#18bcf2;fill-opacity:1;stroke-width:0.134044" /><path
       d="m 38.352554,37.121002 c 0,1.12053 -0.89297,2.037328 -1.984377,2.037328 H 8.5869288 c -1.091406,0 -1.984375,-0.916798 -1.984375,-2.037328 v -12.22397 c 0,-1.120531 0.631032,-2.685063 1.403614,-3.478263 L 21.073939,8.0022148 c 0.771261,-0.791843 2.034646,-0.791843 2.805907,0 L 36.948938,21.419991 c 0.77126,0.791842 1.403616,2.357869 1.403616,3.4784 V 37.12236 Z"
       fill="#f2f4f9"
       id="path1"
       inkscape:label="wine"
       style="display:none;fill:#800000;fill-opacity:1;stroke-width:0.134044" /><path
       d="m 38.352554,37.121002 c 0,1.12053 -0.89297,2.037328 -1.984377,2.037328 H 8.5869288 c -1.091406,0 -1.984375,-0.916798 -1.984375,-2.037328 v -12.22397 c 0,-1.120531 0.631032,-2.685063 1.403614,-3.478263 L 21.073939,8.0022159 c 0.771261,-0.7918431 2.034646,-0.7918431 2.805907,0 L 36.948938,21.419991 c 0.77126,0.791842 1.403616,2.357869 1.403616,3.4784 V 37.12236 Z"
       fill="#f2f4f9"
       id="path1-8"
       inkscape:label="green"
       style="display:none;fill:#5f941e;fill-opacity:1;stroke-width:0.134044" /></g><g
     inkscape:groupmode="layer"
     id="layer17"
     inkscape:label="eye"><g
       inkscape:groupmode="layer"
       id="g12"
       inkscape:label="o o o"
       style="display:none"><ellipse
         style="display:inline;fill:#f9f9f9;fill-opacity:1;stroke:#f9f9f9;stroke-width:1.26129;stroke-linecap:round;stroke-linejoin:round;stroke-miterlimit:0;stroke-dasharray:none;stroke-dashoffset:14.6975;stroke-opacity:1"
         id="ellipse13"
         cx="16.240738"
         cy="26.049749"
         rx="1.3537303"
         ry="1.3537284"
         inkscape:label="L" /><ellipse
         style="display:inline;fill:#f9f9f9;fill-opacity:1;stroke:#f9f9f9;stroke-width:1.26129;stroke-linecap:round;stroke-linejoin:round;stroke-miterlimit:0;stroke-dasharray:none;stroke-dashoffset:14.6975;stroke-opacity:1"
         id="ellipse12-6"
         cx="22.489582"
         cy="26.049814"
         rx="1.3537301"
         ry="1.3537284"
         inkscape:label="M" /><ellipse
         style="display:inline;fill:#f9f9f9;fill-opacity:1;stroke:#f9f9f9;stroke-width:1.26129;stroke-linecap:round;stroke-linejoin:round;stroke-miterlimit:0;stroke-dasharray:none;stroke-dashoffset:14.6975;stroke-opacity:1"
         id="ellipse12"
         cx="29.033321"
         cy="25.917458"
         rx="1.3537303"
         ry="1.3537284"
         inkscape:label="R" /></g><g
       inkscape:groupmode="layer"
       id="g15"
       inkscape:label="o o"
       style="display:inline"><ellipse
         style="display:inline;fill:#f9f9f9;fill-opacity:1;stroke:#f9f9f9;stroke-width:1.26129;stroke-linecap:round;stroke-linejoin:round;stroke-miterlimit:0;stroke-dasharray:none;stroke-dashoffset:14.6975;stroke-opacity:1"
         id="ellipse14"
         cx="16.240738"
         cy="26.049749"
         rx="1.3537303"
         ry="1.3537284"
         inkscape:label="L" /><ellipse
         style="display:inline;fill:#f9f9f9;fill-opacity:1;stroke:#f9f9f9;stroke-width:1.26129;stroke-linecap:round;stroke-linejoin:round;stroke-miterlimit:0;stroke-dasharray:none;stroke-dashoffset:14.6975;stroke-opacity:1"
         id="ellipse1"
         cx="29.033321"
         cy="25.917458"
         rx="1.3537303"
         ry="1.3537284"
         inkscape:label="R" /></g><g
       inkscape:groupmode="layer"
       id="g10"
       inkscape:label="- o"
       style="display:none"><path
         style="fill:none;fill-opacity:1;stroke:#f9f9f9;stroke-width:1.82867;stroke-linecap:round;stroke-linejoin:round;stroke-miterlimit:0;stroke-dasharray:none;stroke-dashoffset:14.6975;stroke-opacity:1"
         d="m 14.131472,26.04975 h 3.462997"
         id="path10"
         sodipodi:nodetypes="cc"
         inkscape:label="L" /><ellipse
         style="display:inline;fill:#f9f9f9;fill-opacity:1;stroke:#f9f9f9;stroke-width:1.26129;stroke-linecap:round;stroke-linejoin:round;stroke-miterlimit:0;stroke-dasharray:none;stroke-dashoffset:14.6975;stroke-opacity:1"
         id="path11"
         cx="29.033321"
         cy="25.917458"
         rx="1.3537303"
         ry="1.3537284"
         inkscape:label="R" /></g><g
       inkscape:groupmode="layer"
       id="layer3"
       inkscape:label="- -"
       style="display:none"><path
         style="fill:none;fill-opacity:1;stroke:#f9f9f9;stroke-width:1.82867;stroke-linecap:round;stroke-linejoin:round;stroke-miterlimit:0;stroke-dasharray:none;stroke-dashoffset:14.6975;stroke-opacity:1"
         d="m 27.360639,26.04975 h 3.462997"
         id="path6-4"
         sodipodi:nodetypes="cc"
         inkscape:label="R" /><path
         style="fill:none;fill-opacity:1;stroke:#f9f9f9;stroke-width:1.82867;stroke-linecap:round;stroke-linejoin:round;stroke-miterlimit:0;stroke-dasharray:none;stroke-dashoffset:14.6975;stroke-opacity:1"
         d="m 14.131472,26.04975 h 3.462997"
         id="path6"
         sodipodi:nodetypes="cc"
         inkscape:label="L" /></g></g><g
     inkscape:groupmode="layer"
     id="layer13"
     inkscape:label="mouth"><path
       style="display:none;fill:#f9f9f9;fill-opacity:1;stroke:#f9f9f9;stroke-width:1.85319;stroke-linecap:round;stroke-linejoin:round;stroke-miterlimit:0;stroke-dasharray:none;stroke-dashoffset:14.6975;stroke-opacity:1"
       d="m 26.842627,31.353681 c 0,0 -0.605656,2.645804 -4.365073,2.645804 -3.759417,0 -4.365073,-2.645804 -4.365073,-2.645804 z"
       id="path15"
       sodipodi:nodetypes="czc"
       inkscape:label="D" /><path
       style="display:none;fill:none;fill-opacity:1;stroke:#f9f9f9;stroke-width:1.85319;stroke-linecap:round;stroke-linejoin:round;stroke-miterlimit:0;stroke-dasharray:none;stroke-dashoffset:14.6975;stroke-opacity:1"
       d="m 18.112481,33.999485 c 0,0 0.605656,-2.645804 4.365073,-2.645804 3.759417,0 4.365073,2.645804 4.365073,2.645804"
       id="path8"
       sodipodi:nodetypes="czc"
       inkscape:label="(" /><path
       style="display:inline;fill:none;fill-opacity:1;stroke:#f9f9f9;stroke-width:1.85319;stroke-linecap:round;stroke-linejoin:round;stroke-miterlimit:0;stroke-dasharray:none;stroke-dashoffset:14.6975;stroke-opacity:1"
       d="m 18.112481,32.412015 8.730146,0.793722"
       id="path6-4-0"
       sodipodi:nodetypes="cc"
       inkscape:label="/" /><path
       style="display:none;fill:none;fill-opacity:1;stroke:#f9f9f9;stroke-width:1.85319;stroke-linecap:round;stroke-linejoin:round;stroke-miterlimit:0;stroke-dasharray:none;stroke-dashoffset:14.6975;stroke-opacity:1"
       d="m 18.112481,31.353681 c 0,0 0.605656,2.645804 4.365073,2.645804 3.759417,0 4.365073,-2.645804 4.365073,-2.645804"
       id="path7"
       sodipodi:nodetypes="czc"
       inkscape:label=")" /><ellipse
       style="display:none;fill:#f9f9f9;fill-opacity:1;stroke:#f9f9f9;stroke-width:2.10215;stroke-linecap:round;stroke-linejoin:round;stroke-miterlimit:0;stroke-dasharray:none;stroke-dashoffset:14.6975;stroke-opacity:1"
       id="ellipse15"
       cx="22.477554"
       cy="31.743271"
       rx="2.2562168"
       ry="2.2562137"
       inkscape:label="o" /></g><path
     d="M 96,0 A 96,96 0 0 0 0,96 94.81,94.81 0 0 0 15.3,147.26 L 161.2,25.68 A 95.63,95.63 0 0 0 96,0 Z M 416,0 A 95.66,95.66 0 0 0 350.82,25.66 L 496.71,147.23 A 94.85,94.85 0 0 0 512,96 96,96 0 0 0 416,0 Z M 256,64 C 132.3,64 32,164.29 32,288 a 222.7,222.7 0 0 0 44.79,134 l -40.1,40.09 a 16,16 0 0 0 0,22.63 l 22.62,22.62 a 16,16 0 0 0 22.63,0 L 122,467.22 a 222.82,222.82 0 0 0 268,0 l 40.1,40.09 a 16,16 0 0 0 22.62,0 l 22.63,-22.62 a 16,16 0 0 0 0,-22.63 L 435.25,422 A 222.69,222.69 0 0 0 480,288 C 480,164.29 379.74,64 256,64 Z m 82.7,159 -96.8,121 H 320 a 16,16 0 0 1 16,16 v 16 a 16,16 0 0 1 -16,16 H 192 A 24,24 0 0 1 173.26,353 L 270,232 h -78 a 16,16 0 0 1 -16,-16 v -16 a 16,16 0 0 1 16,-16 h 128 a 24,24 0 0 1 18.73,39 z"
     id="path1-5"
     style="display:none;fill:#808000"
     inkscape:label="alarm"
     transform="matrix(0.01739638,0,0,0.01739638,18.02408,35.957398)" /></svg>
